<svg xmlns="http://www.w3.org/2000/svg" viewBox="0 0 200 190" width="600" height="570" style="color:#1b1916"><title>Woodcut apple with leaf</title><defs><filter id="r-fruit-apple" x="-5%" y="-5%" width="110%" height="110%"><feTurbulence type="fractalNoise" baseFrequency=".9" numOctaves="1" seed="5" result="n"/><feDisplacementMap in="SourceGraphic" in2="n" scale="2"/></filter><mask id="m-fruit-apple" maskUnits="userSpaceOnUse" x="-10" y="-10" width="220" height="210"><path d="M100 60 C86 46 56 46 42 70 C26 98 38 150 66 170 C80 180 92 176 100 170 C108 176 120 180 134 170 C162 150 174 98 158 70 C144 46 114 46 100 60 Z" fill="#fff"/><path d="M98 62 C98 46 102 34 108 26 L112 28 C106 38 103 48 103 62 Z" fill="#fff"/><path d="M108 40 C120 22 146 18 162 26 C150 42 126 48 108 40 Z" fill="#fff"/><path d="M60 80 Q50 110 62 146" stroke="#000" stroke-width="3.00" stroke-linecap="round" stroke-linejoin="round" fill="none"/><path d="M70 74 Q62 100 70 130" stroke="#000" stroke-width="1.60" stroke-linecap="round" stroke-linejoin="round" fill="none"/><path d="M110 42 Q134 34 158 27" stroke="#000" stroke-width="1.40" stroke-linecap="round" stroke-linejoin="round" fill="none"/><path d="M130.0 84.0 l8.5 3.6" stroke="#000" stroke-width="0.89" stroke-linecap="round" stroke-linejoin="round" fill="none"/><path d="M132.0 91.0 l10.6 3.9" stroke="#000" stroke-width="1.14" stroke-linecap="round" stroke-linejoin="round" fill="none"/><path d="M134.0 98.0 l6.8 2.6" stroke="#000" stroke-width="0.92" stroke-linecap="round" stroke-linejoin="round" fill="none"/><path d="M136.0 105.0 l9.1 2.8" stroke="#000" stroke-width="1.01" stroke-linecap="round" stroke-linejoin="round" fill="none"/><path d="M138.0 112.0 l8.1 2.2" stroke="#000" stroke-width="1.13" stroke-linecap="round" stroke-linejoin="round" fill="none"/><path d="M140.0 119.0 l9.3 4.7" stroke="#000" stroke-width="1.01" stroke-linecap="round" stroke-linejoin="round" fill="none"/><path d="M142.0 126.0 l11.2 3.8" stroke="#000" stroke-width="1.00" stroke-linecap="round" stroke-linejoin="round" fill="none"/><path d="M144.0 133.0 l11.6 3.1" stroke="#000" stroke-width="1.19" stroke-linecap="round" stroke-linejoin="round" fill="none"/><path d="M146.0 140.0 l9.5 4.8" stroke="#000" stroke-width="0.84" stroke-linecap="round" stroke-linejoin="round" fill="none"/><path d="M148.0 147.0 l9.2 2.9" stroke="#000" stroke-width="1.13" stroke-linecap="round" stroke-linejoin="round" fill="none"/></mask></defs><g filter="url(#r-fruit-apple)"><g fill="currentColor" mask="url(#m-fruit-apple)"><path d="M100 60 C86 46 56 46 42 70 C26 98 38 150 66 170 C80 180 92 176 100 170 C108 176 120 180 134 170 C162 150 174 98 158 70 C144 46 114 46 100 60 Z"/><path d="M98 62 C98 46 102 34 108 26 L112 28 C106 38 103 48 103 62 Z"/><path d="M108 40 C120 22 146 18 162 26 C150 42 126 48 108 40 Z"/></g></g></svg>