<svg xmlns="http://www.w3.org/2000/svg" viewBox="-5 -5 110 110" width="220" height="220" style="color:#1b1916"><defs><filter id="sdr" x="-8%" y="-8%" width="116%" height="116%"><feTurbulence type="fractalNoise" baseFrequency=".9" numOctaves="1" seed="4" result="n"/><feDisplacementMap in="SourceGraphic" in2="n" scale="2"/></filter><mask id="m-sunflower" maskUnits="userSpaceOnUse" x="0" y="0" width="100" height="100"><path d="M50 6 C63 17 69 40 67 64 C65 82 57 94 50 96 C43 94 35 82 33 64 C31 40 37 17 50 6 Z" fill="#fff"/><path d="M46.9 16 Q38.8 52 41.0 90" stroke="#000" stroke-width="2.60" stroke-linecap="round" fill="none"/><path d="M48.8 16 Q45.6 52 46.5 90" stroke="#000" stroke-width="1.40" stroke-linecap="round" fill="none"/><path d="M51.0 16 Q53.8 52 53.0 90" stroke="#000" stroke-width="2.40" stroke-linecap="round" fill="none"/><path d="M53.1 16 Q61.2 52 59.0 90" stroke="#000" stroke-width="1.30" stroke-linecap="round" fill="none"/><path d="M38.3 30.0 l3.4 -1.4" stroke="#000" stroke-width="0.90" stroke-linecap="round" fill="none"/><path d="M39.0 37.0 l2.4 -1.2" stroke="#000" stroke-width="0.90" stroke-linecap="round" fill="none"/><path d="M39.6 44.0 l3.0 -1.5" stroke="#000" stroke-width="0.90" stroke-linecap="round" fill="none"/><path d="M38.5 51.0 l2.0 -1.6" stroke="#000" stroke-width="0.90" stroke-linecap="round" fill="none"/><path d="M39.2 58.0 l2.1 -1.2" stroke="#000" stroke-width="0.90" stroke-linecap="round" fill="none"/><path d="M38.5 65.0 l2.5 -2.0" stroke="#000" stroke-width="0.90" stroke-linecap="round" fill="none"/><path d="M40.0 72.0 l3.5 -1.1" stroke="#000" stroke-width="0.90" stroke-linecap="round" fill="none"/><path d="M39.2 79.0 l2.1 -1.7" stroke="#000" stroke-width="0.90" stroke-linecap="round" fill="none"/></mask></defs><g filter="url(#sdr)"><g fill="currentColor" mask="url(#m-sunflower)"><path d="M50 6 C63 17 69 40 67 64 C65 82 57 94 50 96 C43 94 35 82 33 64 C31 40 37 17 50 6 Z"/></g></g></svg>
