<svg xmlns="http://www.w3.org/2000/svg" viewBox="0 0 400 220" width="1200" height="660" style="color:#1b1916"><title>Woodcut: people sitting on chairs in a circle</title><defs><filter id="r-circle-of-chairs" x="-5%" y="-5%" width="110%" height="110%"><feTurbulence type="fractalNoise" baseFrequency=".9" numOctaves="1" seed="5" result="n"/><feDisplacementMap in="SourceGraphic" in2="n" scale="2"/></filter><mask id="m-circle-of-chairs" maskUnits="userSpaceOnUse" x="-10" y="-10" width="420" height="240"><path d="M14 156 C20 72 380 72 386 156 C380 232 20 232 14 156 Z" fill="#fff"/><path d="M187.4 34.5 a6.3 6.3 0 1 0 12.6 0 a6.3 6.3 0 1 0 -12.6 0 Z" stroke="#000" stroke-width="6.00" stroke-linecap="round" stroke-linejoin="round" fill="none"/><path d="M188.4 42.9 L198.9 41.9 L202.1 49.2 L204.2 60.8 L214.7 61.8 L216.8 68.1 L218.9 84.9 L213.6 86.0 L211.5 70.2 L197.9 70.2 L190.5 68.1 L187.4 55.5 Z" stroke="#000" stroke-width="6.00" stroke-linecap="round" stroke-linejoin="round" fill="none"/><path d="M183.2 45.0 L186.3 45.0 L186.3 68.1 L210.5 68.1 L210.5 71.2 L207.3 71.2 L207.3 87.0 L205.2 87.0 L205.2 71.2 L188.4 71.2 L188.4 87.0 L186.3 87.0 L186.3 71.2 L183.2 71.2 Z" stroke="#000" stroke-width="6.00" stroke-linecap="round" stroke-linejoin="round" fill="none"/><path d="M299.0 44.7 a7.0 7.0 0 1 0 13.9 0 a7.0 7.0 0 1 0 -13.9 0 Z" stroke="#000" stroke-width="6.00" stroke-linecap="round" stroke-linejoin="round" fill="none"/><path d="M311.8 54.0 L300.2 52.8 L296.7 60.9 L294.4 73.7 L282.8 74.8 L280.4 81.8 L278.1 100.4 L283.9 101.5 L286.2 84.1 L301.3 84.1 L309.4 81.8 L312.9 67.9 Z" stroke="#000" stroke-width="6.00" stroke-linecap="round" stroke-linejoin="round" fill="none"/><path d="M317.6 56.3 L314.1 56.3 L314.1 81.8 L287.4 81.8 L287.4 85.3 L290.9 85.3 L290.9 102.7 L293.2 102.7 L293.2 85.3 L311.8 85.3 L311.8 102.7 L314.1 102.7 L314.1 85.3 L317.6 85.3 Z" stroke="#000" stroke-width="6.00" stroke-linecap="round" stroke-linejoin="round" fill="none"/><path d="M87.1 44.7 a7.0 7.0 0 1 0 13.9 0 a7.0 7.0 0 1 0 -13.9 0 Z" stroke="#000" stroke-width="6.00" stroke-linecap="round" stroke-linejoin="round" fill="none"/><path d="M88.2 54.0 L99.8 52.8 L103.3 60.9 L105.6 73.7 L117.2 74.8 L119.6 81.8 L121.9 100.4 L116.1 101.5 L113.8 84.1 L98.7 84.1 L90.6 81.8 L87.1 67.9 Z" stroke="#000" stroke-width="6.00" stroke-linecap="round" stroke-linejoin="round" fill="none"/><path d="M82.4 56.3 L85.9 56.3 L85.9 81.8 L112.6 81.8 L112.6 85.3 L109.1 85.3 L109.1 102.7 L106.8 102.7 L106.8 85.3 L88.2 85.3 L88.2 102.7 L85.9 102.7 L85.9 85.3 L82.4 85.3 Z" stroke="#000" stroke-width="6.00" stroke-linecap="round" stroke-linejoin="round" fill="none"/><path d="M340.0 69.2 a8.6 8.6 0 1 0 17.1 0 a8.6 8.6 0 1 0 -17.1 0 Z" stroke="#000" stroke-width="6.00" stroke-linecap="round" stroke-linejoin="round" fill="none"/><path d="M355.7 80.7 L341.4 79.2 L337.1 89.2 L334.3 104.9 L320.1 106.3 L317.2 114.8 L314.4 137.7 L321.5 139.1 L324.3 117.7 L342.9 117.7 L352.8 114.8 L357.1 97.8 Z" stroke="#000" stroke-width="6.00" stroke-linecap="round" stroke-linejoin="round" fill="none"/><path d="M362.8 83.5 L358.5 83.5 L358.5 114.8 L325.8 114.8 L325.8 119.1 L330.0 119.1 L330.0 140.5 L332.9 140.5 L332.9 119.1 L355.7 119.1 L355.7 140.5 L358.5 140.5 L358.5 119.1 L362.8 119.1 Z" stroke="#000" stroke-width="6.00" stroke-linecap="round" stroke-linejoin="round" fill="none"/><path d="M42.9 69.2 a8.6 8.6 0 1 0 17.1 0 a8.6 8.6 0 1 0 -17.1 0 Z" stroke="#000" stroke-width="6.00" stroke-linecap="round" stroke-linejoin="round" fill="none"/><path d="M44.3 80.6 L58.6 79.2 L62.9 89.2 L65.7 104.9 L80.0 106.3 L82.8 114.8 L85.7 137.7 L78.5 139.1 L75.7 117.7 L57.1 117.7 L47.2 114.8 L42.9 97.8 Z" stroke="#000" stroke-width="6.00" stroke-linecap="round" stroke-linejoin="round" fill="none"/><path d="M37.2 83.5 L41.5 83.5 L41.5 114.8 L74.2 114.8 L74.2 119.1 L70.0 119.1 L70.0 140.5 L67.1 140.5 L67.1 119.1 L44.3 119.1 L44.3 140.5 L41.5 140.5 L41.5 119.1 L37.2 119.1 Z" stroke="#000" stroke-width="6.00" stroke-linecap="round" stroke-linejoin="round" fill="none"/><path d="M299.0 93.8 a10.1 10.1 0 1 0 20.3 0 a10.1 10.1 0 1 0 -20.3 0 Z" stroke="#000" stroke-width="6.00" stroke-linecap="round" stroke-linejoin="round" fill="none"/><path d="M317.6 107.3 L300.7 105.7 L295.6 117.5 L292.2 136.1 L275.3 137.8 L272.0 147.9 L268.6 174.9 L277.0 176.6 L280.4 151.3 L302.4 151.3 L314.2 147.9 L319.3 127.6 Z" stroke="#000" stroke-width="6.00" stroke-linecap="round" stroke-linejoin="round" fill="none"/><path d="M326.0 110.7 L321.0 110.7 L321.0 147.9 L282.1 147.9 L282.1 153.0 L287.2 153.0 L287.2 178.3 L290.5 178.3 L290.5 153.0 L317.6 153.0 L317.6 178.3 L321.0 178.3 L321.0 153.0 L326.0 153.0 Z" stroke="#000" stroke-width="6.00" stroke-linecap="round" stroke-linejoin="round" fill="none"/><path d="M80.7 93.8 a10.1 10.1 0 1 0 20.3 0 a10.1 10.1 0 1 0 -20.3 0 Z" stroke="#000" stroke-width="6.00" stroke-linecap="round" stroke-linejoin="round" fill="none"/><path d="M82.4 107.3 L99.3 105.7 L104.4 117.5 L107.8 136.1 L124.7 137.8 L128.0 147.9 L131.4 174.9 L123.0 176.6 L119.6 151.3 L97.6 151.3 L85.8 147.9 L80.7 127.6 Z" stroke="#000" stroke-width="6.00" stroke-linecap="round" stroke-linejoin="round" fill="none"/><path d="M74.0 110.7 L79.0 110.7 L79.0 147.9 L117.9 147.9 L117.9 153.0 L112.8 153.0 L112.8 178.3 L109.5 178.3 L109.5 153.0 L82.4 153.0 L82.4 178.3 L79.0 178.3 L79.0 153.0 L74.0 153.0 Z" stroke="#000" stroke-width="6.00" stroke-linecap="round" stroke-linejoin="round" fill="none"/><path d="M200.0 104.0 a10.8 10.8 0 1 0 21.6 0 a10.8 10.8 0 1 0 -21.6 0 Z" stroke="#000" stroke-width="6.00" stroke-linecap="round" stroke-linejoin="round" fill="none"/><path d="M219.8 118.4 L201.8 116.6 L196.4 129.2 L192.8 149.0 L174.8 150.8 L171.2 161.6 L167.6 190.4 L176.6 192.2 L180.2 165.2 L203.6 165.2 L216.2 161.6 L221.6 140.0 Z" stroke="#000" stroke-width="6.00" stroke-linecap="round" stroke-linejoin="round" fill="none"/><path d="M228.8 122.0 L223.4 122.0 L223.4 161.6 L182.0 161.6 L182.0 167.0 L187.4 167.0 L187.4 194.0 L191.0 194.0 L191.0 167.0 L219.8 167.0 L219.8 194.0 L223.4 194.0 L223.4 167.0 L228.8 167.0 Z" stroke="#000" stroke-width="6.00" stroke-linecap="round" stroke-linejoin="round" fill="none"/><path d="M30 156 Q200 188 370 156" stroke="#000" stroke-width="1.26" stroke-linecap="round" stroke-linejoin="round" fill="none"/><path d="M38 161 Q200 194 362 161" stroke="#000" stroke-width="1.49" stroke-linecap="round" stroke-linejoin="round" fill="none"/><path d="M46 166 Q200 200 354 166" stroke="#000" stroke-width="1.06" stroke-linecap="round" stroke-linejoin="round" fill="none"/><path d="M54 171 Q200 206 346 171" stroke="#000" stroke-width="1.58" stroke-linecap="round" stroke-linejoin="round" fill="none"/><path d="M62 176 Q200 212 338 176" stroke="#000" stroke-width="1.30" stroke-linecap="round" stroke-linejoin="round" fill="none"/><path d="M70 181 Q200 218 330 181" stroke="#000" stroke-width="1.34" stroke-linecap="round" stroke-linejoin="round" fill="none"/><path d="M78 186 Q200 224 322 186" stroke="#000" stroke-width="1.14" stroke-linecap="round" stroke-linejoin="round" fill="none"/><path d="M86 191 Q200 230 314 191" stroke="#000" stroke-width="1.40" stroke-linecap="round" stroke-linejoin="round" fill="none"/><path d="M94 196 Q200 236 306 196" stroke="#000" stroke-width="1.13" stroke-linecap="round" stroke-linejoin="round" fill="none"/><path d="M195.5 148.0 L185.1 138.6" stroke="#000" stroke-width="2.20" stroke-linecap="round" stroke-linejoin="round" fill="none"/><path d="M197.6 146.5 L191.9 133.7" stroke="#000" stroke-width="2.20" stroke-linecap="round" stroke-linejoin="round" fill="none"/><path d="M200.0 146.0 L200.0 132.0" stroke="#000" stroke-width="2.20" stroke-linecap="round" stroke-linejoin="round" fill="none"/><path d="M202.4 146.5 L208.1 133.7" stroke="#000" stroke-width="2.20" stroke-linecap="round" stroke-linejoin="round" fill="none"/><path d="M204.5 148.0 L214.9 138.6" stroke="#000" stroke-width="2.20" stroke-linecap="round" stroke-linejoin="round" fill="none"/><path d="M195.0 152.0 a5.0 5.0 0 1 0 10.0 0 a5.0 5.0 0 1 0 -10.0 0" stroke="#000" stroke-width="3.00" stroke-linecap="round" stroke-linejoin="round" fill="none"/><path d="M187.4 34.5 a6.3 6.3 0 1 0 12.6 0 a6.3 6.3 0 1 0 -12.6 0 Z" fill="#fff"/><path d="M188.4 42.9 L198.9 41.9 L202.1 49.2 L204.2 60.8 L214.7 61.8 L216.8 68.1 L218.9 84.9 L213.6 86.0 L211.5 70.2 L197.9 70.2 L190.5 68.1 L187.4 55.5 Z" fill="#fff"/><path d="M183.2 45.0 L186.3 45.0 L186.3 68.1 L210.5 68.1 L210.5 71.2 L207.3 71.2 L207.3 87.0 L205.2 87.0 L205.2 71.2 L188.4 71.2 L188.4 87.0 L186.3 87.0 L186.3 71.2 L183.2 71.2 Z" fill="#fff"/><path d="M299.0 44.7 a7.0 7.0 0 1 0 13.9 0 a7.0 7.0 0 1 0 -13.9 0 Z" fill="#fff"/><path d="M311.8 54.0 L300.2 52.8 L296.7 60.9 L294.4 73.7 L282.8 74.8 L280.4 81.8 L278.1 100.4 L283.9 101.5 L286.2 84.1 L301.3 84.1 L309.4 81.8 L312.9 67.9 Z" fill="#fff"/><path d="M317.6 56.3 L314.1 56.3 L314.1 81.8 L287.4 81.8 L287.4 85.3 L290.9 85.3 L290.9 102.7 L293.2 102.7 L293.2 85.3 L311.8 85.3 L311.8 102.7 L314.1 102.7 L314.1 85.3 L317.6 85.3 Z" fill="#fff"/><path d="M87.1 44.7 a7.0 7.0 0 1 0 13.9 0 a7.0 7.0 0 1 0 -13.9 0 Z" fill="#fff"/><path d="M88.2 54.0 L99.8 52.8 L103.3 60.9 L105.6 73.7 L117.2 74.8 L119.6 81.8 L121.9 100.4 L116.1 101.5 L113.8 84.1 L98.7 84.1 L90.6 81.8 L87.1 67.9 Z" fill="#fff"/><path d="M82.4 56.3 L85.9 56.3 L85.9 81.8 L112.6 81.8 L112.6 85.3 L109.1 85.3 L109.1 102.7 L106.8 102.7 L106.8 85.3 L88.2 85.3 L88.2 102.7 L85.9 102.7 L85.9 85.3 L82.4 85.3 Z" fill="#fff"/><path d="M340.0 69.2 a8.6 8.6 0 1 0 17.1 0 a8.6 8.6 0 1 0 -17.1 0 Z" fill="#fff"/><path d="M355.7 80.7 L341.4 79.2 L337.1 89.2 L334.3 104.9 L320.1 106.3 L317.2 114.8 L314.4 137.7 L321.5 139.1 L324.3 117.7 L342.9 117.7 L352.8 114.8 L357.1 97.8 Z" fill="#fff"/><path d="M362.8 83.5 L358.5 83.5 L358.5 114.8 L325.8 114.8 L325.8 119.1 L330.0 119.1 L330.0 140.5 L332.9 140.5 L332.9 119.1 L355.7 119.1 L355.7 140.5 L358.5 140.5 L358.5 119.1 L362.8 119.1 Z" fill="#fff"/><path d="M42.9 69.2 a8.6 8.6 0 1 0 17.1 0 a8.6 8.6 0 1 0 -17.1 0 Z" fill="#fff"/><path d="M44.3 80.6 L58.6 79.2 L62.9 89.2 L65.7 104.9 L80.0 106.3 L82.8 114.8 L85.7 137.7 L78.5 139.1 L75.7 117.7 L57.1 117.7 L47.2 114.8 L42.9 97.8 Z" fill="#fff"/><path d="M37.2 83.5 L41.5 83.5 L41.5 114.8 L74.2 114.8 L74.2 119.1 L70.0 119.1 L70.0 140.5 L67.1 140.5 L67.1 119.1 L44.3 119.1 L44.3 140.5 L41.5 140.5 L41.5 119.1 L37.2 119.1 Z" fill="#fff"/><path d="M299.0 93.8 a10.1 10.1 0 1 0 20.3 0 a10.1 10.1 0 1 0 -20.3 0 Z" fill="#fff"/><path d="M317.6 107.3 L300.7 105.7 L295.6 117.5 L292.2 136.1 L275.3 137.8 L272.0 147.9 L268.6 174.9 L277.0 176.6 L280.4 151.3 L302.4 151.3 L314.2 147.9 L319.3 127.6 Z" fill="#fff"/><path d="M326.0 110.7 L321.0 110.7 L321.0 147.9 L282.1 147.9 L282.1 153.0 L287.2 153.0 L287.2 178.3 L290.5 178.3 L290.5 153.0 L317.6 153.0 L317.6 178.3 L321.0 178.3 L321.0 153.0 L326.0 153.0 Z" fill="#fff"/><path d="M80.7 93.8 a10.1 10.1 0 1 0 20.3 0 a10.1 10.1 0 1 0 -20.3 0 Z" fill="#fff"/><path d="M82.4 107.3 L99.3 105.7 L104.4 117.5 L107.8 136.1 L124.7 137.8 L128.0 147.9 L131.4 174.9 L123.0 176.6 L119.6 151.3 L97.6 151.3 L85.8 147.9 L80.7 127.6 Z" fill="#fff"/><path d="M74.0 110.7 L79.0 110.7 L79.0 147.9 L117.9 147.9 L117.9 153.0 L112.8 153.0 L112.8 178.3 L109.5 178.3 L109.5 153.0 L82.4 153.0 L82.4 178.3 L79.0 178.3 L79.0 153.0 L74.0 153.0 Z" fill="#fff"/><path d="M200.0 104.0 a10.8 10.8 0 1 0 21.6 0 a10.8 10.8 0 1 0 -21.6 0 Z" fill="#fff"/><path d="M219.8 118.4 L201.8 116.6 L196.4 129.2 L192.8 149.0 L174.8 150.8 L171.2 161.6 L167.6 190.4 L176.6 192.2 L180.2 165.2 L203.6 165.2 L216.2 161.6 L221.6 140.0 Z" fill="#fff"/><path d="M228.8 122.0 L223.4 122.0 L223.4 161.6 L182.0 161.6 L182.0 167.0 L187.4 167.0 L187.4 194.0 L191.0 194.0 L191.0 167.0 L219.8 167.0 L219.8 194.0 L223.4 194.0 L223.4 167.0 L228.8 167.0 Z" fill="#fff"/></mask></defs><g filter="url(#r-circle-of-chairs)"><g fill="currentColor" mask="url(#m-circle-of-chairs)"><path d="M14 156 C20 72 380 72 386 156 C380 232 20 232 14 156 Z"/><path d="M187.4 34.5 a6.3 6.3 0 1 0 12.6 0 a6.3 6.3 0 1 0 -12.6 0 Z"/><path d="M188.4 42.9 L198.9 41.9 L202.1 49.2 L204.2 60.8 L214.7 61.8 L216.8 68.1 L218.9 84.9 L213.6 86.0 L211.5 70.2 L197.9 70.2 L190.5 68.1 L187.4 55.5 Z"/><path d="M183.2 45.0 L186.3 45.0 L186.3 68.1 L210.5 68.1 L210.5 71.2 L207.3 71.2 L207.3 87.0 L205.2 87.0 L205.2 71.2 L188.4 71.2 L188.4 87.0 L186.3 87.0 L186.3 71.2 L183.2 71.2 Z"/><path d="M299.0 44.7 a7.0 7.0 0 1 0 13.9 0 a7.0 7.0 0 1 0 -13.9 0 Z"/><path d="M311.8 54.0 L300.2 52.8 L296.7 60.9 L294.4 73.7 L282.8 74.8 L280.4 81.8 L278.1 100.4 L283.9 101.5 L286.2 84.1 L301.3 84.1 L309.4 81.8 L312.9 67.9 Z"/><path d="M317.6 56.3 L314.1 56.3 L314.1 81.8 L287.4 81.8 L287.4 85.3 L290.9 85.3 L290.9 102.7 L293.2 102.7 L293.2 85.3 L311.8 85.3 L311.8 102.7 L314.1 102.7 L314.1 85.3 L317.6 85.3 Z"/><path d="M87.1 44.7 a7.0 7.0 0 1 0 13.9 0 a7.0 7.0 0 1 0 -13.9 0 Z"/><path d="M88.2 54.0 L99.8 52.8 L103.3 60.9 L105.6 73.7 L117.2 74.8 L119.6 81.8 L121.9 100.4 L116.1 101.5 L113.8 84.1 L98.7 84.1 L90.6 81.8 L87.1 67.9 Z"/><path d="M82.4 56.3 L85.9 56.3 L85.9 81.8 L112.6 81.8 L112.6 85.3 L109.1 85.3 L109.1 102.7 L106.8 102.7 L106.8 85.3 L88.2 85.3 L88.2 102.7 L85.9 102.7 L85.9 85.3 L82.4 85.3 Z"/><path d="M340.0 69.2 a8.6 8.6 0 1 0 17.1 0 a8.6 8.6 0 1 0 -17.1 0 Z"/><path d="M355.7 80.7 L341.4 79.2 L337.1 89.2 L334.3 104.9 L320.1 106.3 L317.2 114.8 L314.4 137.7 L321.5 139.1 L324.3 117.7 L342.9 117.7 L352.8 114.8 L357.1 97.8 Z"/><path d="M362.8 83.5 L358.5 83.5 L358.5 114.8 L325.8 114.8 L325.8 119.1 L330.0 119.1 L330.0 140.5 L332.9 140.5 L332.9 119.1 L355.7 119.1 L355.7 140.5 L358.5 140.5 L358.5 119.1 L362.8 119.1 Z"/><path d="M42.9 69.2 a8.6 8.6 0 1 0 17.1 0 a8.6 8.6 0 1 0 -17.1 0 Z"/><path d="M44.3 80.6 L58.6 79.2 L62.9 89.2 L65.7 104.9 L80.0 106.3 L82.8 114.8 L85.7 137.7 L78.5 139.1 L75.7 117.7 L57.1 117.7 L47.2 114.8 L42.9 97.8 Z"/><path d="M37.2 83.5 L41.5 83.5 L41.5 114.8 L74.2 114.8 L74.2 119.1 L70.0 119.1 L70.0 140.5 L67.1 140.5 L67.1 119.1 L44.3 119.1 L44.3 140.5 L41.5 140.5 L41.5 119.1 L37.2 119.1 Z"/><path d="M299.0 93.8 a10.1 10.1 0 1 0 20.3 0 a10.1 10.1 0 1 0 -20.3 0 Z"/><path d="M317.6 107.3 L300.7 105.7 L295.6 117.5 L292.2 136.1 L275.3 137.8 L272.0 147.9 L268.6 174.9 L277.0 176.6 L280.4 151.3 L302.4 151.3 L314.2 147.9 L319.3 127.6 Z"/><path d="M326.0 110.7 L321.0 110.7 L321.0 147.9 L282.1 147.9 L282.1 153.0 L287.2 153.0 L287.2 178.3 L290.5 178.3 L290.5 153.0 L317.6 153.0 L317.6 178.3 L321.0 178.3 L321.0 153.0 L326.0 153.0 Z"/><path d="M80.7 93.8 a10.1 10.1 0 1 0 20.3 0 a10.1 10.1 0 1 0 -20.3 0 Z"/><path d="M82.4 107.3 L99.3 105.7 L104.4 117.5 L107.8 136.1 L124.7 137.8 L128.0 147.9 L131.4 174.9 L123.0 176.6 L119.6 151.3 L97.6 151.3 L85.8 147.9 L80.7 127.6 Z"/><path d="M74.0 110.7 L79.0 110.7 L79.0 147.9 L117.9 147.9 L117.9 153.0 L112.8 153.0 L112.8 178.3 L109.5 178.3 L109.5 153.0 L82.4 153.0 L82.4 178.3 L79.0 178.3 L79.0 153.0 L74.0 153.0 Z"/><path d="M200.0 104.0 a10.8 10.8 0 1 0 21.6 0 a10.8 10.8 0 1 0 -21.6 0 Z"/><path d="M219.8 118.4 L201.8 116.6 L196.4 129.2 L192.8 149.0 L174.8 150.8 L171.2 161.6 L167.6 190.4 L176.6 192.2 L180.2 165.2 L203.6 165.2 L216.2 161.6 L221.6 140.0 Z"/><path d="M228.8 122.0 L223.4 122.0 L223.4 161.6 L182.0 161.6 L182.0 167.0 L187.4 167.0 L187.4 194.0 L191.0 194.0 L191.0 167.0 L219.8 167.0 L219.8 194.0 L223.4 194.0 L223.4 167.0 L228.8 167.0 Z"/></g></g></svg>