<svg xmlns="http://www.w3.org/2000/svg" viewBox="-5 -5 110 110" width="220" height="220" style="color:#1b1916"><defs><filter id="sdr" x="-8%" y="-8%" width="116%" height="116%"><feTurbulence type="fractalNoise" baseFrequency=".9" numOctaves="1" seed="4" result="n"/><feDisplacementMap in="SourceGraphic" in2="n" scale="2"/></filter><mask id="m-bean" maskUnits="userSpaceOnUse" x="0" y="0" width="100" height="100"><path d="M16 50 C16 30 33 19 52 21 C72 23 87 37 85 56 C83 75 66 85 48 83 C35 82 29 73 33 65 C37 58 29 56 23 58 C18 59 16 55 16 50 Z" fill="#fff"/><path d="M27 56 Q31 61 31 66" stroke="#000" stroke-width="2.20" stroke-linecap="round" fill="none"/><path d="M22.0 40.0 q-2.0 6 0 10.0" stroke="#000" stroke-width="1.10" stroke-linecap="round" fill="none"/><path d="M25.0 38.5 q-2.0 6 0 11.0" stroke="#000" stroke-width="1.10" stroke-linecap="round" fill="none"/><path d="M28.0 37.0 q-2.0 6 0 12.0" stroke="#000" stroke-width="1.10" stroke-linecap="round" fill="none"/><path d="M31.0 35.5 q-2.0 6 0 13.0" stroke="#000" stroke-width="1.10" stroke-linecap="round" fill="none"/><path d="M34.0 34.0 q-2.0 6 0 14.0" stroke="#000" stroke-width="1.10" stroke-linecap="round" fill="none"/><path d="M42.0 27.0 Q66.0 33.0 76.0 48.0" stroke="#000" stroke-width="1.20" stroke-linecap="round" fill="none"/><path d="M46.5 27.8 Q67.6 35.5 76.4 51.0" stroke="#000" stroke-width="0.89" stroke-linecap="round" fill="none"/><path d="M51.0 28.6 Q69.2 38.0 76.8 54.0" stroke="#000" stroke-width="1.56" stroke-linecap="round" fill="none"/><path d="M55.5 29.4 Q70.8 40.5 77.2 57.0" stroke="#000" stroke-width="1.09" stroke-linecap="round" fill="none"/><path d="M60.0 30.2 Q72.4 43.0 77.6 60.0" stroke="#000" stroke-width="0.92" stroke-linecap="round" fill="none"/><path d="M64.5 31.0 Q74.0 45.5 78.0 63.0" stroke="#000" stroke-width="1.45" stroke-linecap="round" fill="none"/><path d="M69.0 31.8 Q75.6 48.0 78.4 66.0" stroke="#000" stroke-width="0.90" stroke-linecap="round" fill="none"/><path d="M73.5 32.6 Q77.2 50.5 78.8 69.0" stroke="#000" stroke-width="1.54" stroke-linecap="round" fill="none"/></mask></defs><g filter="url(#sdr)"><g fill="currentColor" mask="url(#m-bean)"><path d="M16 50 C16 30 33 19 52 21 C72 23 87 37 85 56 C83 75 66 85 48 83 C35 82 29 73 33 65 C37 58 29 56 23 58 C18 59 16 55 16 50 Z"/></g></g></svg>
